<svg width="170" height="48" viewBox="0 0 170 48" fill="none" xmlns="http://www.w3.org/2000/svg">
<path d="M27.552 6.424L27.0217 6.95434L27.0257 6.9583L27.552 6.424ZM27.552 27.416L28.0823 27.9463L27.552 27.416ZM7.84 31.64V30.89H7.09V31.64H7.84ZM7.84 47V47.75H8.59V47H7.84ZM0.48 47H-0.27V47.75H0.48V47ZM0.48 2.2V1.45H-0.27V2.2H0.48ZM22.368 22.552L22.9062 23.0744L22.9137 23.0665L22.368 22.552ZM22.368 11.352L21.8223 11.8666L21.8298 11.8744L22.368 11.352ZM7.84 9.112V8.362H7.09V9.112H7.84ZM7.84 24.728H7.09V25.478H7.84V24.728ZM16.992 2.95C21.0305 2.95 24.3555 4.28817 27.0217 6.95433L28.0823 5.89367C25.1165 2.92782 21.4015 1.45 16.992 1.45V2.95ZM27.0257 6.9583C29.7347 9.62685 31.09 12.9301 31.09 16.92H32.59C32.59 12.5472 31.0867 8.85315 28.0783 5.8897L27.0257 6.9583ZM31.09 16.92C31.09 20.865 29.736 24.1713 27.0217 26.8857L28.0823 27.9463C31.0853 24.9433 32.59 21.2523 32.59 16.92H31.09ZM27.0217 26.8857C24.3555 29.5518 21.0305 30.89 16.992 30.89V32.39C21.4015 32.39 25.1165 30.9122 28.0823 27.9463L27.0217 26.8857ZM16.992 30.89H7.84V32.39H16.992V30.89ZM7.09 31.64V47H8.59V31.64H7.09ZM7.84 46.25H0.48V47.75H7.84V46.25ZM1.23 47V2.2H-0.27V47H1.23ZM0.48 2.95H16.992V1.45H0.48V2.95ZM16.992 25.478C19.3536 25.478 21.3454 24.6824 22.9062 23.0744L21.8298 22.0296C20.5746 23.3229 18.9824 23.978 16.992 23.978V25.478ZM22.9137 23.0665C24.4668 21.4193 25.23 19.3514 25.23 16.92H23.73C23.73 19.0112 23.0852 20.698 21.8223 22.0375L22.9137 23.0665ZM25.23 16.92C25.23 14.4888 24.4666 12.4373 22.9062 10.8296L21.8298 11.8744C23.0854 13.168 23.73 14.8285 23.73 16.92H25.23ZM22.9137 10.8375C21.3547 9.18402 19.3606 8.362 16.992 8.362V9.862C18.9754 9.862 20.5653 10.5333 21.8223 11.8665L22.9137 10.8375ZM16.992 8.362H7.84V9.862H16.992V8.362ZM7.09 9.112V24.728H8.59V9.112H7.09ZM7.84 25.478H16.992V23.978H7.84V25.478ZM39.168 42.968L38.6411 43.5018L39.168 42.968ZM39.168 19.032L39.6949 19.5658H39.6949L39.168 19.032ZM63.104 19.032L62.5737 19.5623L62.5771 19.5658L63.104 19.032ZM63.104 42.968L62.5771 42.4342L62.5737 42.4377L63.104 42.968ZM58.24 38.232L58.7703 38.7623L58.24 38.232ZM44.032 23.768L44.5623 24.2983L44.032 23.768ZM51.136 47.082C46.6362 47.082 42.8372 45.5358 39.6949 42.4342L38.6411 43.5018C42.0695 46.8856 46.2491 48.582 51.136 48.582V47.082ZM39.6949 42.4342C36.5564 39.3365 34.99 35.5412 34.99 31H33.49C33.49 35.9308 35.2089 40.1141 38.6411 43.5018L39.6949 42.4342ZM34.99 31C34.99 26.4588 36.5564 22.6635 39.6949 19.5658L38.6411 18.4982C35.2089 21.8859 33.49 26.0692 33.49 31H34.99ZM39.6949 19.5658C42.8372 16.4642 46.6362 14.918 51.136 14.918V13.418C46.2491 13.418 42.0695 15.1144 38.6411 18.4982L39.6949 19.5658ZM51.136 14.918C55.6804 14.918 59.4767 16.4654 62.5737 19.5623L63.6343 18.5017C60.2459 15.1133 56.0636 13.418 51.136 13.418V14.918ZM62.5771 19.5658C65.7156 22.6635 67.282 26.4588 67.282 31H68.782C68.782 26.0692 67.0631 21.8859 63.6309 18.4982L62.5771 19.5658ZM67.282 31C67.282 35.5412 65.7156 39.3365 62.5771 42.4342L63.6309 43.5018C67.0631 40.1141 68.782 35.9308 68.782 31H67.282ZM62.5737 42.4377C59.4767 45.5346 55.6804 47.082 51.136 47.082V48.582C56.0636 48.582 60.2459 46.8867 63.6343 43.4983L62.5737 42.4377ZM43.5017 38.7623C45.568 40.8287 48.1293 41.862 51.136 41.862V40.362C48.5107 40.362 46.336 39.4753 44.5623 37.7017L43.5017 38.7623ZM51.136 41.862C54.1427 41.862 56.704 40.8287 58.7703 38.7623L57.7097 37.7017C55.936 39.4753 53.7613 40.362 51.136 40.362V41.862ZM58.7703 38.7623C60.8413 36.6913 61.87 34.0852 61.87 31H60.37C60.37 33.7175 59.4787 35.9326 57.7097 37.7017L58.7703 38.7623ZM61.87 31C61.87 27.9148 60.8413 25.3086 58.7703 23.2377L57.7097 24.2983C59.4787 26.0674 60.37 28.2825 60.37 31H61.87ZM58.7703 23.2377C56.704 21.1713 54.1427 20.138 51.136 20.138V21.638C53.7613 21.638 55.936 22.5247 57.7097 24.2983L58.7703 23.2377ZM51.136 20.138C48.1293 20.138 45.568 21.1713 43.5017 23.2377L44.5623 24.2983C46.336 22.5247 48.5107 21.638 51.136 21.638V20.138ZM43.5017 23.2377C41.4307 25.3086 40.402 27.9148 40.402 31H41.902C41.902 28.2825 42.7933 26.0674 44.5623 24.2983L43.5017 23.2377ZM40.402 31C40.402 34.0852 41.4307 36.6914 43.5017 38.7623L44.5623 37.7017C42.7933 35.9326 41.902 33.7175 41.902 31H40.402ZM81.694 20.376H80.944L82.3803 20.6785L81.694 20.376ZM91.55 14.424H92.3V13.674H91.55V14.424ZM91.55 21.912L91.5017 22.6604L92.3 22.7119V21.912H91.55ZM84.638 23.832L85.0752 24.4415L85.0838 24.4351L84.638 23.832ZM81.694 47V47.75H82.444V47H81.694ZM74.782 47H74.032V47.75H74.782V47ZM74.782 15V14.25H74.032V15H74.782ZM81.694 15H82.444V14.25H81.694V15ZM82.3803 20.6785C83.2011 18.8167 84.3639 17.4561 85.8577 16.554C87.3569 15.6487 89.2413 15.174 91.55 15.174V13.674C89.0374 13.674 86.8684 14.1913 85.0823 15.27C83.2908 16.3519 81.9362 17.9673 81.0077 20.0735L82.3803 20.6785ZM90.8 14.424V21.912H92.3V14.424H90.8ZM91.5983 21.1636C88.7926 20.9825 86.3099 21.6636 84.1922 23.2289L85.0838 24.4351C86.8914 23.0991 89.0167 22.5001 91.5017 22.6604L91.5983 21.1636ZM84.2008 23.2226C81.9759 24.8187 80.944 27.4395 80.944 30.872H82.444C82.444 27.7339 83.3748 25.6613 85.0752 24.4414L84.2008 23.2226ZM80.944 30.872V47H82.444V30.872H80.944ZM81.694 46.25H74.782V47.75H81.694V46.25ZM75.532 47V15H74.032V47H75.532ZM74.782 15.75H81.694V14.25H74.782V15.75ZM80.944 15V20.376H82.444V15H80.944ZM115.826 21.656V22.406H116.576V21.656H115.826ZM107.89 21.656V20.906H107.14V21.656H107.89ZM108.785 39.896L108.255 40.4263L108.265 40.4361L108.275 40.4456L108.785 39.896ZM111.41 40.856L111.354 41.604L111.368 41.605L111.383 41.6055L111.41 40.856ZM115.826 40.792H116.576V40.0045L115.789 40.0429L115.826 40.792ZM115.826 47L115.916 47.7446L116.576 47.6647V47H115.826ZM104.434 45.656L104.01 46.2747L104.017 46.28L104.434 45.656ZM100.978 21.656H101.728V20.906H100.978V21.656ZM95.0895 21.656H94.3395V22.406H95.0895V21.656ZM95.0895 15V14.25H94.3395V15H95.0895ZM100.978 15V15.75H101.728V15H100.978ZM100.978 8.088L100.764 7.3689L100.228 7.52799V8.088H100.978ZM107.89 6.04H108.64V5.03555L107.676 5.3209L107.89 6.04ZM107.89 15H107.14V15.75H107.89V15ZM115.826 15H116.576V14.25H115.826V15ZM115.826 20.906H107.89V22.406H115.826V20.906ZM107.14 21.656V37.016H108.64V21.656H107.14ZM107.14 37.016C107.14 38.4283 107.455 39.6264 108.255 40.4263L109.316 39.3657C108.921 38.9709 108.64 38.249 108.64 37.016H107.14ZM108.275 40.4456C109.04 41.1559 110.102 41.5112 111.354 41.604L111.465 40.108C110.413 40.0302 109.726 39.7454 109.296 39.3464L108.275 40.4456ZM111.383 41.6055C112.606 41.6492 114.1 41.627 115.862 41.5411L115.789 40.0429C114.052 40.1276 112.603 40.1481 111.436 40.1065L111.383 41.6055ZM115.076 40.792V47H116.576V40.792H115.076ZM115.735 46.2554C110.48 46.8911 106.918 46.4108 104.85 45.032L104.017 46.28C106.557 47.9732 110.589 48.3889 115.916 47.7446L115.735 46.2554ZM104.857 45.0373C102.845 43.6585 101.728 41.0796 101.728 37.016H100.228C100.228 41.3151 101.414 44.4961 104.01 46.2747L104.857 45.0373ZM101.728 37.016V21.656H100.228V37.016H101.728ZM100.978 20.906H95.0895V22.406H100.978V20.906ZM95.8395 21.656V15H94.3395V21.656H95.8395ZM95.0895 15.75H100.978V14.25H95.0895V15.75ZM101.728 15V8.088H100.228V15H101.728ZM101.191 8.8071L108.103 6.7591L107.676 5.3209L100.764 7.3689L101.191 8.8071ZM107.14 6.04V15H108.64V6.04H107.14ZM107.89 15.75H115.826V14.25H107.89V15.75ZM115.076 15V21.656H116.576V15H115.076ZM146.626 15V14.25H145.876V15H146.626ZM153.538 15H154.288V14.25H153.538V15ZM153.538 47V47.75H154.288V47H153.538ZM146.626 47H145.876V47.75H146.626V47ZM146.626 42.392H147.376V40.0606L146.017 41.9547L146.626 42.392ZM124.162 42.968L123.618 43.484L123.621 43.4875L124.162 42.968ZM124.162 19.032L124.703 19.5515L124.162 19.032ZM146.626 19.544L146.019 19.9847L147.376 21.8532V19.544H146.626ZM129.282 38.36L128.746 38.8845L128.752 38.8903L129.282 38.36ZM143.746 38.36L144.276 38.8904L144.282 38.8845L143.746 38.36ZM143.746 23.704L143.21 24.2285L143.216 24.2343L143.746 23.704ZM129.282 23.704L129.812 24.2344L129.818 24.2285L129.282 23.704ZM146.626 15.75H153.538V14.25H146.626V15.75ZM152.788 15V47H154.288V15H152.788ZM153.538 46.25H146.626V47.75H153.538V46.25ZM147.376 47V42.392H145.876V47H147.376ZM146.017 41.9547C143.569 45.3654 140.074 47.082 135.426 47.082V48.582C140.506 48.582 144.478 46.6719 147.235 42.8293L146.017 41.9547ZM135.426 47.082C131.241 47.082 127.68 45.5477 124.703 42.4485L123.621 43.4875C126.874 46.8736 130.822 48.582 135.426 48.582V47.082ZM124.706 42.452C121.729 39.3116 120.24 35.5091 120.24 31H118.74C118.74 35.8775 120.366 40.0538 123.618 43.484L124.706 42.452ZM120.24 31C120.24 26.4463 121.73 22.6465 124.703 19.5515L123.621 18.5125C120.365 21.9028 118.74 26.0817 118.74 31H120.24ZM124.703 19.5515C127.68 16.4523 131.241 14.918 135.426 14.918V13.418C130.822 13.418 126.874 15.1264 123.621 18.5125L124.703 19.5515ZM135.426 14.918C140.077 14.918 143.573 16.6161 146.019 19.9847L147.233 19.1033C144.474 15.3039 140.503 13.418 135.426 13.418V14.918ZM147.376 19.544V15H145.876V19.544H147.376ZM128.752 38.8903C130.823 40.9613 133.429 41.99 136.514 41.99V40.49C133.796 40.49 131.581 39.5987 129.812 37.8297L128.752 38.8903ZM136.514 41.99C139.599 41.99 142.205 40.9613 144.276 38.8903L143.216 37.8297C141.447 39.5987 139.232 40.49 136.514 40.49V41.99ZM144.282 38.8845C146.35 36.7709 147.376 34.1244 147.376 31H145.876C145.876 33.7636 144.982 36.0238 143.21 37.8355L144.282 38.8845ZM147.376 31C147.376 27.8756 146.35 25.2469 144.276 23.1737L143.216 24.2343C144.982 26.0011 145.876 28.2364 145.876 31H147.376ZM144.282 23.1795C142.212 21.0638 139.604 20.01 136.514 20.01V21.51C139.226 21.51 141.44 22.4189 143.21 24.2285L144.282 23.1795ZM136.514 20.01C133.424 20.01 130.816 21.0638 128.746 23.1795L129.818 24.2285C131.588 22.4189 133.802 21.51 136.514 21.51V20.01ZM128.752 23.1737C126.678 25.2469 125.652 27.8756 125.652 31H127.152C127.152 28.2364 128.046 26.0011 129.812 24.2343L128.752 23.1737ZM125.652 31C125.652 34.1244 126.678 36.7709 128.746 38.8845L129.818 37.8355C128.046 36.0238 127.152 33.7636 127.152 31H125.652ZM162.094 47H161.344V47.75H162.094V47ZM162.094 0.279999V-0.470001H161.344V0.279999H162.094ZM169.007 0.279999H169.757V-0.470001H169.007V0.279999ZM169.007 47V47.75H169.757V47H169.007ZM162.844 47V0.279999H161.344V47H162.844ZM162.094 1.03H169.007V-0.470001H162.094V1.03ZM168.257 0.279999V47H169.757V0.279999H168.257ZM169.007 46.25H162.094V47.75H169.007V46.25Z" fill="white" fill-opacity="0.95"/>
</svg>
